<svg width="40" height="40" viewBox="0 0 40 40" fill="none" xmlns="http://www.w3.org/2000/svg">
<path d="M25.5745 20.1563C25.5745 21.6897 24.9604 23.1603 23.8672 24.2446C22.774 25.3289 21.2912 25.9381 19.7452 25.9381C18.1992 25.9381 16.7165 25.3289 15.6233 24.2446C14.5301 23.1603 13.9159 21.6897 13.9159 20.1563C13.9159 19.8267 13.9509 19.5048 14.0111 19.1926H11.9728V26.8959C11.9728 27.4317 12.41 27.8653 12.9502 27.8653H26.5422C26.8011 27.8648 27.0492 27.7625 27.2321 27.5807C27.4149 27.399 27.5176 27.1527 27.5176 26.8959V19.1926H25.4793C25.5396 19.5048 25.5745 19.8267 25.5745 20.1563ZM19.7452 24.0108C20.2557 24.0107 20.7611 23.9108 21.2327 23.7169C21.7043 23.5231 22.1327 23.239 22.4936 22.8809C22.8545 22.5228 23.1407 22.0977 23.3359 21.6298C23.5311 21.162 23.6316 20.6606 23.6314 20.1543C23.6313 19.648 23.5306 19.1467 23.3352 18.679C23.1397 18.2112 22.8533 17.7863 22.4922 17.4284C22.1312 17.0704 21.7026 16.7865 21.2309 16.5929C20.7592 16.3993 20.2537 16.2997 19.7433 16.2998C18.7123 16.3 17.7237 16.7065 16.9949 17.4297C16.2661 18.1529 15.8568 19.1337 15.8571 20.1563C15.8573 21.1788 16.2671 22.1594 16.9963 22.8822C17.7254 23.6051 18.7143 24.0111 19.7452 24.0108ZM24.4087 16.109H26.7384C26.8932 16.109 27.0417 16.0481 27.1513 15.9398C27.261 15.8314 27.3228 15.6843 27.3233 15.5308V13.22C27.3233 13.0661 27.2617 12.9186 27.152 12.8098C27.0423 12.701 26.8936 12.6399 26.7384 12.6399H24.4087C24.2535 12.6399 24.1048 12.701 23.9951 12.8098C23.8854 12.9186 23.8238 13.0661 23.8238 13.22V15.5308C23.8257 15.8488 24.0881 16.109 24.4087 16.109Z" fill="white"/>
<path d="M19.7434 1.65454C14.7961 1.65454 10.0514 3.60383 6.55312 7.07359C3.05485 10.5434 1.08955 15.2494 1.08955 20.1563C1.08955 25.0633 3.05485 29.7693 6.55312 33.2391C10.0514 36.7089 14.7961 38.6582 19.7434 38.6582C22.193 38.6582 24.6187 38.1796 26.8819 37.2498C29.145 36.32 31.2014 34.9572 32.9336 33.2391C34.6658 31.5211 36.0398 29.4814 36.9772 27.2367C37.9147 24.9919 38.3972 22.586 38.3972 20.1563C38.3972 17.7267 37.9147 15.3208 36.9772 13.076C36.0398 10.8313 34.6658 8.79165 32.9336 7.07359C31.2014 5.35554 29.145 3.99271 26.8819 3.06291C24.6187 2.1331 22.193 1.65454 19.7434 1.65454ZM29.4589 27.6515C29.4589 28.8291 28.4873 29.7927 27.3001 29.7927H12.1866C10.9994 29.7927 10.0278 28.8291 10.0278 27.6515V12.6612C10.0278 11.4836 10.9994 10.52 12.1866 10.52H27.3001C28.4873 10.52 29.4589 11.4836 29.4589 12.6612V27.6515Z" fill="white"/>
</svg>
