<svg width="27" height="28" viewBox="0 0 27 28" fill="none" xmlns="http://www.w3.org/2000/svg">
<path d="M23.8548 10.1099L17.266 9.15237L14.3206 3.18117C14.2402 3.01768 14.1078 2.88533 13.9443 2.80488C13.5343 2.60247 13.0361 2.77115 12.831 3.18117L9.88567 9.15237L3.29685 10.1099C3.11519 10.1359 2.94911 10.2215 2.82195 10.3513C2.66823 10.5093 2.58352 10.7218 2.58644 10.9423C2.58936 11.1627 2.67967 11.373 2.83752 11.5268L7.60462 16.1746L6.47837 22.7374C6.45196 22.8901 6.46886 23.0471 6.52714 23.1907C6.58542 23.3342 6.68276 23.4586 6.80812 23.5496C6.93348 23.6407 7.08184 23.6948 7.23639 23.7058C7.39093 23.7168 7.54547 23.6843 7.68248 23.612L13.5758 20.5135L19.4692 23.612C19.6301 23.6976 19.8169 23.7261 19.996 23.695C20.4475 23.6171 20.7511 23.189 20.6733 22.7374L19.547 16.1746L24.3141 11.5268C24.4439 11.3997 24.5295 11.2336 24.5555 11.0519C24.6255 10.5978 24.3089 10.1774 23.8548 10.1099Z" fill="black"/>
</svg>
