<svg width="19" height="20" viewBox="0 0 19 20" fill="none" xmlns="http://www.w3.org/2000/svg">
<g clip-path="url(#clip0_2_95)">
<path d="M10.9098 5.83942V11.2052C10.9098 11.317 10.8739 11.4088 10.802 11.4806C10.7302 11.5525 10.6383 11.5884 10.5266 11.5884H6.69387C6.58209 11.5884 6.49026 11.5525 6.4184 11.4806C6.34654 11.4088 6.31061 11.317 6.31061 11.2052V10.4386C6.31061 10.3269 6.34654 10.235 6.4184 10.1632C6.49026 10.0913 6.58209 10.0554 6.69387 10.0554H9.37675V5.83942C9.37675 5.72763 9.41268 5.63581 9.48455 5.56395C9.55641 5.49208 9.64823 5.45615 9.76002 5.45615H10.5266C10.6383 5.45615 10.7302 5.49208 10.802 5.56395C10.8739 5.63581 10.9098 5.72763 10.9098 5.83942ZM15.8923 10.0554C15.8923 8.87363 15.6009 7.78371 15.018 6.78561C14.4351 5.78752 13.6446 4.99703 12.6465 4.41414C11.6484 3.83125 10.5585 3.53981 9.37675 3.53981C8.19501 3.53981 7.10509 3.83125 6.10699 4.41414C5.1089 4.99703 4.31841 5.78752 3.73552 6.78561C3.15264 7.78371 2.86119 8.87363 2.86119 10.0554C2.86119 11.2371 3.15264 12.327 3.73552 13.3251C4.31841 14.3232 5.1089 15.1137 6.10699 15.6966C7.10509 16.2795 8.19501 16.5709 9.37675 16.5709C10.5585 16.5709 11.6484 16.2795 12.6465 15.6966C13.6446 15.1137 14.4351 14.3232 15.018 13.3251C15.6009 12.327 15.8923 11.2371 15.8923 10.0554ZM18.5752 10.0554C18.5752 11.7242 18.164 13.2632 17.3415 14.6726C16.5191 16.0819 15.4032 17.1977 13.9939 18.0202C12.5846 18.8426 11.0456 19.2538 9.37675 19.2538C7.70794 19.2538 6.16888 18.8426 4.75957 18.0202C3.35026 17.1977 2.23439 16.0819 1.41196 14.6726C0.589529 13.2632 0.178314 11.7242 0.178314 10.0554C0.178314 8.38656 0.589529 6.8475 1.41196 5.43819C2.23439 4.02888 3.35026 2.91301 4.75957 2.09058C6.16888 1.26815 7.70794 0.856934 9.37675 0.856934C11.0456 0.856934 12.5846 1.26815 13.9939 2.09058C15.4032 2.91301 16.5191 4.02888 17.3415 5.43819C18.164 6.8475 18.5752 8.38656 18.5752 10.0554Z" fill="black"/>
</g>
<defs>
<clipPath id="clip0_2_95">
<rect width="18.3969" height="18.3969" fill="white" transform="translate(0.176514 0.857056)"/>
</clipPath>
</defs>
</svg>
