<svg width="40" height="40" viewBox="0 0 40 40" fill="none" xmlns="http://www.w3.org/2000/svg">
<path d="M19.792 3.29272C10.4028 3.29272 2.7898 10.8437 2.7898 20.1563C2.7898 29.469 10.4028 37.02 19.792 37.02C29.1811 37.02 36.7941 29.469 36.7941 20.1563C36.7941 10.8437 29.1811 3.29272 19.792 3.29272ZM27.9629 16.0044C27.9743 16.1814 27.9743 16.3658 27.9743 16.5465C27.9743 22.0723 23.7313 28.4376 15.9779 28.4376C13.5869 28.4376 11.3706 27.7487 9.50338 26.563C9.84494 26.6007 10.1713 26.6157 10.5205 26.6157C12.4939 26.6157 14.308 25.9532 15.754 24.8315C13.9019 24.7938 12.3459 23.5893 11.8146 21.9331C12.4636 22.0272 13.048 22.0272 13.716 21.8578C12.7624 21.6656 11.9052 21.1519 11.2902 20.404C10.6752 19.656 10.3402 18.72 10.3421 17.7548V17.7021C10.9 18.0145 11.5565 18.2065 12.2435 18.2328C11.666 17.8511 11.1924 17.334 10.8647 16.7273C10.537 16.1206 10.3653 15.443 10.3649 14.7547C10.3649 13.9755 10.5698 13.2641 10.9379 12.6468C11.9964 13.9392 13.3172 14.9962 14.8145 15.7491C16.3118 16.502 17.9521 16.934 19.6288 17.017C19.0329 14.175 21.1734 11.8751 23.7465 11.8751C24.9609 11.8751 26.0539 12.3795 26.8243 13.1926C27.7769 13.0157 28.6877 12.6618 29.4999 12.1875C29.1849 13.1549 28.5246 13.9718 27.6479 14.4875C28.498 14.3971 29.3177 14.1637 30.0768 13.8363C29.5037 14.6719 28.7864 15.4135 27.9629 16.0044Z" fill="white"/>
</svg>
