<svg width="33" height="33" viewBox="0 0 33 33" fill="none" xmlns="http://www.w3.org/2000/svg">
<path d="M28.9864 11.4491L21.1305 10.3074L17.6188 3.18784C17.5228 2.99292 17.365 2.83512 17.1701 2.7392C16.6812 2.49786 16.0872 2.69898 15.8427 3.18784L12.3309 10.3074L4.47504 11.4491C4.25846 11.48 4.06044 11.5821 3.90882 11.7368C3.72554 11.9252 3.62454 12.1787 3.62802 12.4415C3.6315 12.7043 3.73918 12.955 3.92739 13.1384L9.61124 18.68L8.2684 26.5049C8.23691 26.687 8.25705 26.8742 8.32655 27.0453C8.39604 27.2165 8.5121 27.3647 8.66156 27.4733C8.81103 27.5819 8.98792 27.6464 9.17219 27.6595C9.35645 27.6726 9.5407 27.6339 9.70406 27.5476L16.7307 23.8533L23.7574 27.5476C23.9493 27.6497 24.172 27.6838 24.3855 27.6466C24.9239 27.5538 25.2859 27.0433 25.1931 26.5049L23.8503 18.68L29.5341 13.1384C29.6888 12.9868 29.7909 12.7888 29.8219 12.5722C29.9054 12.0308 29.5279 11.5295 28.9864 11.4491Z" fill="black"/>
</svg>
