<svg width="23" height="23" viewBox="0 0 23 23" fill="none" xmlns="http://www.w3.org/2000/svg">
<g clip-path="url(#clip0_2_73)">
<path d="M13.3415 6.11943V12.6776C13.3415 12.8142 13.2976 12.9264 13.2098 13.0143C13.1219 13.1021 13.0097 13.146 12.8731 13.146H8.18869C8.05206 13.146 7.93983 13.1021 7.852 13.0143C7.76417 12.9264 7.72025 12.8142 7.72025 12.6776V11.7407C7.72025 11.6041 7.76417 11.4918 7.852 11.404C7.93983 11.3162 8.05206 11.2723 8.18869 11.2723H11.4678V6.11943C11.4678 5.9828 11.5117 5.87057 11.5995 5.78274C11.6873 5.69491 11.7996 5.65099 11.9362 5.65099H12.8731C13.0097 5.65099 13.1219 5.69491 13.2098 5.78274C13.2976 5.87057 13.3415 5.9828 13.3415 6.11943ZM19.4312 11.2723C19.4312 9.82791 19.075 8.49578 18.3626 7.27589C17.6502 6.056 16.684 5.08984 15.4641 4.37742C14.2442 3.66501 12.9121 3.3088 11.4678 3.3088C10.0234 3.3088 8.69129 3.66501 7.47139 4.37742C6.2515 5.08984 5.28534 6.056 4.57293 7.27589C3.86051 8.49578 3.5043 9.82791 3.5043 11.2723C3.5043 12.7166 3.86051 14.0487 4.57293 15.2686C5.28534 16.4885 6.2515 17.4547 7.47139 18.1671C8.69129 18.8795 10.0234 19.2357 11.4678 19.2357C12.9121 19.2357 14.2442 18.8795 15.4641 18.1671C16.684 17.4547 17.6502 16.4885 18.3626 15.2686C19.075 14.0487 19.4312 12.7166 19.4312 11.2723ZM22.7103 11.2723C22.7103 13.3119 22.2077 15.193 21.2025 16.9155C20.1973 18.638 18.8335 20.0018 17.111 21.007C15.3885 22.0122 13.5074 22.5148 11.4678 22.5148C9.4281 22.5148 7.54703 22.0122 5.82454 21.007C4.10205 20.0018 2.73821 18.638 1.73302 16.9155C0.727823 15.193 0.225227 13.3119 0.225227 11.2723C0.225227 9.2326 0.727823 7.35152 1.73302 5.62903C2.73821 3.90654 4.10205 2.5427 5.82454 1.53751C7.54703 0.53232 9.4281 0.0297241 11.4678 0.0297241C13.5074 0.0297241 15.3885 0.53232 17.111 1.53751C18.8335 2.5427 20.1973 3.90654 21.2025 5.62903C22.2077 7.35152 22.7103 9.2326 22.7103 11.2723Z" fill="black"/>
</g>
<defs>
<clipPath id="clip0_2_73">
<rect width="22.4851" height="22.4851" fill="white" transform="translate(0.223694 0.0296631)"/>
</clipPath>
</defs>
</svg>
