<svg width="40" height="40" viewBox="0 0 40 40" fill="none" xmlns="http://www.w3.org/2000/svg">
<g clip-path="url(#clip0_2_184)">
<path d="M19.6284 1.65454C9.32601 1.65454 0.974543 9.93795 0.974543 20.1563C0.974543 30.3747 9.32601 38.6582 19.6284 38.6582C29.9307 38.6582 38.2822 30.3747 38.2822 20.1563C38.2822 9.93795 29.9307 1.65454 19.6284 1.65454ZM24.047 14.4401H21.2431C20.9108 14.4401 20.5416 14.8737 20.5416 15.45V17.4582H24.0489L23.5184 20.3221H20.5416V28.9197H17.2325V20.3221H14.2304V17.4582H17.2325V15.7737C17.2325 13.3569 18.923 11.393 21.2431 11.393H24.047V14.4401Z" fill="white"/>
</g>
<defs>
<clipPath id="clip0_2_184">
<rect width="38.8621" height="38.5454" fill="white" transform="translate(0.200195 0.883301)"/>
</clipPath>
</defs>
</svg>
