<svg width="28" height="28" viewBox="0 0 28 28" fill="none" xmlns="http://www.w3.org/2000/svg">
<path d="M24.2896 10.1099L17.7008 9.15237L14.7554 3.18117C14.675 3.01768 14.5427 2.88533 14.3792 2.80488C13.9691 2.60247 13.4709 2.77115 13.2659 3.18117L10.3205 9.15237L3.73169 10.1099C3.55004 10.1359 3.38396 10.2215 3.2568 10.3513C3.10307 10.5093 3.01836 10.7218 3.02128 10.9423C3.0242 11.1627 3.11451 11.373 3.27237 11.5268L8.03947 16.1746L6.91322 22.7374C6.88681 22.8901 6.9037 23.0471 6.96199 23.1907C7.02027 23.3342 7.11761 23.4586 7.24297 23.5496C7.36833 23.6407 7.51669 23.6948 7.67123 23.7058C7.82577 23.7168 7.98031 23.6843 8.11732 23.612L14.0107 20.5135L19.904 23.612C20.0649 23.6976 20.2518 23.7261 20.4308 23.695C20.8824 23.6171 21.186 23.189 21.1081 22.7374L19.9819 16.1746L24.749 11.5268C24.8787 11.3997 24.9644 11.2336 24.9903 11.0519C25.0604 10.5978 24.7438 10.1774 24.2896 10.1099Z" fill="black"/>
</svg>
