<svg width="18" height="20" viewBox="0 0 18 20" fill="none" xmlns="http://www.w3.org/2000/svg">
<path d="M1.9782 0.557739C0.922633 0.557739 0.064209 1.41654 0.064209 2.47257V13.9616C0.064209 15.0176 0.922633 15.8764 1.9782 15.8764H5.40998L8.67716 19.145L11.9443 15.8764H15.3761C16.4317 15.8764 17.2901 15.0176 17.2901 13.9616V2.47257C17.2901 1.41654 16.4317 0.557739 15.3761 0.557739H1.9782ZM15.3761 13.9616H11.152L8.67716 16.4374L6.20237 13.9616H1.9782V2.47257H15.3761V13.9616Z" fill="black"/>
<path d="M3.89319 5.34485H13.4631V7.25968H3.89319V5.34485ZM3.89319 9.17451H10.5922V11.0893H3.89319V9.17451Z" fill="black"/>
</svg>
