<svg width="1273" height="80" viewBox="0 0 1273 80" fill="none" xmlns="http://www.w3.org/2000/svg">
<circle cx="1233.35" cy="39.9033" r="39.2501" fill="#122526"/>
<path d="M1224.84 56.0718C1225.11 56.2094 1225.41 56.2723 1225.7 56.2539C1226 56.2354 1226.29 56.1363 1226.53 55.9671L1247.79 41.2483C1248.01 41.0978 1248.19 40.8969 1248.31 40.6627C1248.43 40.4286 1248.5 40.1683 1248.5 39.904C1248.5 39.6397 1248.43 39.3793 1248.31 39.1452C1248.19 38.9111 1248.01 38.7102 1247.79 38.5597L1226.53 23.8408C1226.29 23.6711 1226 23.5717 1225.7 23.5534C1225.4 23.5351 1225.11 23.5986 1224.84 23.7371C1224.58 23.8755 1224.36 24.0836 1224.2 24.3389C1224.05 24.5941 1223.97 24.8868 1223.97 25.1852V54.6228C1223.97 54.9213 1224.05 55.2141 1224.2 55.4696C1224.36 55.725 1224.58 55.9332 1224.84 56.0718Z" fill="white"/>
<circle cx="39.6311" cy="39.7361" r="39.2501" transform="rotate(-180 39.6311 39.7361)" fill="#122526"/>
<path d="M48.1361 23.5678C47.8716 23.4302 47.5745 23.3672 47.2769 23.3856C46.9793 23.4041 46.6923 23.5032 46.4467 23.6724L25.1862 38.3912C24.969 38.5417 24.7914 38.7427 24.6688 38.9768C24.5462 39.2109 24.4822 39.4713 24.4822 39.7356C24.4822 39.9998 24.5462 40.2602 24.6688 40.4943C24.7914 40.7284 24.969 40.9294 25.1862 41.0799L46.4467 55.7987C46.6921 55.9684 46.9792 56.0679 47.277 56.0862C47.5748 56.1044 47.8719 56.0409 48.1362 55.9025C48.4005 55.764 48.6219 55.5559 48.7764 55.3006C48.9309 55.0454 49.0126 54.7527 49.0127 54.4544L49.0127 25.0168C49.0127 24.7182 48.9311 24.4254 48.7766 24.17C48.622 23.9145 48.4006 23.7063 48.1361 23.5678Z" fill="white"/>
</svg>
