<svg width="21" height="23" viewBox="0 0 21 23" fill="none" xmlns="http://www.w3.org/2000/svg">
<path d="M2.50262 0.488464C1.23909 0.488464 0.211548 1.51416 0.211548 2.77542V16.4972C0.211548 17.7584 1.23909 18.7841 2.50262 18.7841H6.61052L10.5214 22.688L14.4322 18.7841H18.5401C19.8037 18.7841 20.8312 17.7584 20.8312 16.4972V2.77542C20.8312 1.51416 19.8037 0.488464 18.5401 0.488464H2.50262ZM18.5401 16.4972H13.4837L10.5214 19.4542L7.55902 16.4972H2.50262V2.77542H18.5401V16.4972Z" fill="black"/>
<path d="M4.7919 6.20575H16.2473V8.49271H4.7919V6.20575ZM4.7919 10.7797H12.8107V13.0666H4.7919V10.7797Z" fill="black"/>
</svg>
