<svg width="19" height="23" viewBox="0 0 19 23" fill="none" xmlns="http://www.w3.org/2000/svg">
<path d="M16.8169 0.488464C17.1195 0.488504 17.4116 0.599415 17.6378 0.800159C17.8639 1.0009 18.0084 1.27752 18.0438 1.57754L18.0525 1.72185V21.4559C18.0521 21.7703 17.9315 22.0727 17.7153 22.3013C17.4991 22.5299 17.2037 22.6674 16.8893 22.6858C16.5749 22.7043 16.2653 22.6022 16.0238 22.4004C15.7823 22.1986 15.6271 21.9124 15.5899 21.6003L15.5813 21.4559V15.289H14.3457C14.043 15.289 13.7509 15.1781 13.5248 14.9773C13.2986 14.7766 13.1541 14.5 13.1187 14.2L13.1101 14.0557V6.65537C13.1101 3.9296 14.9635 0.488464 16.8169 0.488464ZM9.40325 0.488464C9.70589 0.488504 9.99799 0.599415 10.2241 0.800159C10.4503 1.0009 10.5948 1.27752 10.6302 1.57754L10.6388 1.72185V7.88875C10.6387 8.9826 10.2746 10.0454 9.60363 10.9103C8.93269 11.7751 7.99296 12.393 6.93204 12.6669V21.4559C6.93169 21.7703 6.8111 22.0727 6.59491 22.3013C6.37872 22.5299 6.08324 22.6674 5.76886 22.6858C5.45447 22.7043 5.1449 22.6022 4.90339 22.4004C4.66189 22.1986 4.50669 21.9124 4.46949 21.6003L4.46084 21.4559V12.6669C3.44203 12.404 2.53381 11.8235 1.86826 11.0098C1.20271 10.1962 0.814544 9.19184 0.760214 8.14283L0.754036 7.88875V1.72185C0.754385 1.40748 0.874975 1.10512 1.09117 0.876525C1.30736 0.647935 1.60284 0.510375 1.91722 0.491952C2.23161 0.473529 2.54118 0.575633 2.78269 0.777402C3.02419 0.979171 3.17939 1.26538 3.21659 1.57754L3.22524 1.72185V7.88875C3.22525 8.32175 3.33944 8.74711 3.55633 9.1221C3.77323 9.49708 4.08518 9.80847 4.46084 10.025V1.72185C4.46119 1.40748 4.58178 1.10512 4.79797 0.876525C5.01416 0.647935 5.30964 0.510375 5.62403 0.491952C5.93842 0.473529 6.24799 0.575633 6.48949 0.777402C6.73099 0.979171 6.8862 1.26538 6.9234 1.57754L6.93204 1.72185L6.93328 10.025C7.27809 9.82602 7.56962 9.54682 7.78303 9.21116C7.99645 8.87551 8.12543 8.49333 8.159 8.09719L8.16765 7.88875V1.72185C8.16765 1.39473 8.29783 1.08102 8.52955 0.849713C8.76127 0.618409 9.07555 0.488464 9.40325 0.488464Z" fill="black"/>
</svg>
