<svg width="109" height="219" viewBox="0 0 109 219" fill="none" xmlns="http://www.w3.org/2000/svg">
<path d="M35.9024 214.288L35.756 215.568L35.851 215.576L35.9024 214.288ZM0.178494 208.086L11.2372 218.147L14.4178 203.615L0.178494 208.086ZM76.4953 1.92514C91.4518 38.519 103.418 80.3109 105.341 112.743C106.303 128.979 104.736 142.694 99.9213 152.229C97.525 156.974 94.3387 160.656 90.2785 163.123C86.2203 165.59 81.2065 166.894 75.0712 166.753L75.0222 169.331C81.5709 169.481 87.0892 168.088 91.6339 165.326C96.1767 162.565 99.6643 158.486 102.235 153.395C107.355 143.256 108.897 128.995 107.926 112.601C105.979 79.7717 93.9014 37.6827 78.8928 0.961587L76.4953 1.92514ZM75.0712 166.753C62.8451 166.473 54.0338 160.68 48.2165 152.455C42.3707 144.191 39.5475 133.456 39.4638 123.434C39.3798 113.372 42.0541 104.305 46.8738 99.2252C49.2559 96.7146 52.1474 95.1869 55.5266 94.9311C58.9242 94.674 62.96 95.6924 67.6233 98.5503L68.9737 96.3561C63.9854 93.2991 59.4079 92.0509 55.3199 92.3603C51.2135 92.6711 47.7471 94.5431 44.9885 97.4504C39.5266 103.207 36.788 113.047 36.8748 123.445C36.962 133.882 39.8935 145.157 46.1018 153.934C52.3385 162.751 61.8804 169.03 75.0222 169.331L75.0712 166.753ZM67.6233 98.5503C76.9878 104.289 85.0247 114.543 90.4557 126.737C95.8817 138.92 98.653 152.923 97.5944 166.045C96.5363 179.159 91.6631 191.322 81.8766 199.981C72.0968 208.634 57.2486 213.93 35.9538 213L35.851 215.576C57.6321 216.527 73.1972 211.116 83.6007 201.911C93.9974 192.713 99.0774 179.868 100.175 166.262C101.272 152.662 98.4022 138.23 92.8218 125.7C87.2466 113.182 78.9124 102.447 68.9737 96.3561L67.6233 98.5503ZM36.0488 213.008C26.2362 211.856 17.9932 210.513 11.7993 209.335L11.3236 211.867C17.5756 213.056 25.8797 214.409 35.756 215.568L36.0488 213.008Z" fill="white"/>
</svg>
