<svg width="15" height="20" viewBox="0 0 15 20" fill="none" xmlns="http://www.w3.org/2000/svg">
<path d="M13.7707 0.557861C14.0235 0.557895 14.2675 0.650758 14.4565 0.818838C14.6454 0.986917 14.7661 1.21852 14.7957 1.46973L14.8029 1.59055V18.1136C14.8026 18.3768 14.7019 18.63 14.5213 18.8213C14.3407 19.0127 14.0938 19.1279 13.8312 19.1433C13.5685 19.1588 13.3099 19.0733 13.1082 18.9043C12.9064 18.7354 12.7768 18.4958 12.7457 18.2344L12.7385 18.1136V12.9501H11.7062C11.4534 12.9501 11.2094 12.8572 11.0204 12.6892C10.8315 12.5211 10.7108 12.2895 10.6812 12.0383L10.674 11.9174V5.72131C10.674 3.43906 12.2223 0.557861 13.7707 0.557861ZM7.57727 0.557861C7.8301 0.557895 8.07413 0.650758 8.26306 0.818838C8.452 0.986917 8.5727 1.21852 8.60228 1.46973L8.60951 1.59055V6.75399C8.60939 7.66986 8.30518 8.55973 7.74467 9.28386C7.18416 10.008 6.3991 10.5253 5.5128 10.7546V18.1136C5.51251 18.3768 5.41177 18.63 5.23116 18.8213C5.05055 19.0127 4.8037 19.1279 4.54106 19.1433C4.27842 19.1588 4.0198 19.0733 3.81804 18.9043C3.61629 18.7354 3.48663 18.4958 3.45556 18.2344L3.44833 18.1136V10.7546C2.5972 10.5345 1.83846 10.0485 1.28246 9.36723C0.72645 8.68598 0.402172 7.84505 0.356785 6.96673L0.351624 6.75399V1.59055C0.351915 1.32734 0.452658 1.07417 0.633267 0.882778C0.813877 0.691383 1.06072 0.576207 1.32336 0.560782C1.58601 0.545356 1.84463 0.630846 2.04638 0.799784C2.24814 0.968722 2.3778 1.20836 2.40887 1.46973L2.4161 1.59055V6.75399C2.4161 7.11654 2.5115 7.47269 2.69269 7.78665C2.87389 8.10062 3.1345 8.36134 3.44833 8.54261V1.59055C3.44862 1.32734 3.54936 1.07417 3.72997 0.882778C3.91058 0.691383 4.15743 0.576207 4.42007 0.560782C4.68272 0.545356 4.94134 0.630846 5.14309 0.799784C5.34484 0.968722 5.4745 1.20836 5.50558 1.46973L5.5128 1.59055L5.51383 8.54261C5.80189 8.37603 6.04544 8.14227 6.22373 7.86123C6.40202 7.58019 6.50977 7.2602 6.53781 6.92852L6.54504 6.75399V1.59055C6.54504 1.31666 6.65379 1.054 6.84737 0.860329C7.04095 0.666662 7.30351 0.557861 7.57727 0.557861Z" fill="black"/>
</svg>
